<?xml version="1.0" encoding="utf-8"?>
<!-- Generator: Adobe Illustrator 16.0.0, SVG Export Plug-In . SVG Version: 6.00 Build 0)  -->
<!DOCTYPE svg PUBLIC "-//W3C//DTD SVG 1.1//EN" "http://www.w3.org/Graphics/SVG/1.1/DTD/svg11.dtd">
<svg version="1.1" id="Ebene_1" xmlns="http://www.w3.org/2000/svg" xmlns:xlink="http://www.w3.org/1999/xlink" x="0px" y="0px"
	 width="42.75px" height="35.936px" viewBox="0 0 42.75 35.936" enable-background="new 0 0 42.75 35.936" xml:space="preserve">
<path fill="#FFFFFF" d="M16.796,0.285l-1.525,1.606c-0.361,0.38-0.361,0.997,0,1.377l11.946,12.589H0.925
	C0.414,15.858,0,16.294,0,16.832v2.271c0,0.538,0.414,0.975,0.924,0.975h26.293L15.271,32.667c-0.361,0.38-0.361,0.997,0,1.377
	l1.525,1.606c0.361,0.381,0.946,0.381,1.308,0L34.23,18.657c0.36-0.381,0.36-0.997,0-1.377L18.104,0.285
	C17.742-0.094,17.157-0.094,16.796,0.285z"/>
</svg>
