<?xml version="1.0" encoding="utf-8"?>
<!-- Generator: Adobe Illustrator 16.0.0, SVG Export Plug-In . SVG Version: 6.00 Build 0)  -->
<!DOCTYPE svg PUBLIC "-//W3C//DTD SVG 1.1//EN" "http://www.w3.org/Graphics/SVG/1.1/DTD/svg11.dtd">
<svg version="1.1" id="Ebene_1" xmlns="http://www.w3.org/2000/svg" xmlns:xlink="http://www.w3.org/1999/xlink" x="0px" y="0px"
	 width="71px" height="71px" viewBox="0 0 71 71" enable-background="new 0 0 71 71" xml:space="preserve">
<g>
	<path fill="#1D1D1B" d="M51.563,46.186c-0.553-0.318-9-0.801-9-0.801c-4.899-0.4-12.799-1.4-17.5-2.199
		c-4.7-0.801-12.2-1.5-16.7-1.5h-8.3v9.899v9.899l3.8-0.5c2.1-0.301,7.2,0.399,11.7,1.5c4.4,1.199,11.5,2.8,15.7,3.601
		c7.6,1.601,7.799,1.601,14.299-0.899c13.5-5.101,25.5-13.801,25.5-18.5c0-3.201-1.799-3.301-9-0.4c-5.199,2-7,3.199-7.399,5
		c-0.699,2.601-1.199,2.801-13.699,4.4c-7,1-9.102,0.899-12-0.301c-3.3-1.4-3.2-1.4,7.601-2.101c6.1-0.399,11.899-0.802,13-0.899
		c0,0,3.479-0.328,3.332-3.296C52.748,46.122,51.563,46.186,51.563,46.186z"/>
	<path fill="#1D1D1B" d="M27.362,4.184c-4.8,2-7,7.2-5.4,12.5c1.288,3.875,14.202,17.774,18.913,22.188l3.389,3.112l7-6.9
		c11.699-11.5,14.799-15.9,14.799-20.9c0-10.6-11.6-14.9-19.699-7.3l-2.301,2.1l-2.199-2.1c-2.5-2.3-7-4.2-9.6-4.2
		C31.362,2.784,29.063,3.384,27.362,4.184z"/>
	<g>
		<path fill="#1D1D1B" d="M24.264,13.626c0-4.402,3.568-7.972,7.972-7.972"/>
		<path fill="#FFFFFF" d="M24.264,14.626c-0.552,0-1-0.448-1-1c0-4.947,4.025-8.972,8.972-8.972c0.552,0,1,0.448,1,1s-0.448,1-1,1
			c-3.844,0-6.972,3.128-6.972,6.972C25.264,14.178,24.816,14.626,24.264,14.626z"/>
	</g>
</g>
</svg>
